**ABCDEFGHIJKLMNOPQRSTUVWXYZabcdefghijklmnopqrstuvwxyz**************************
**PARASOLID !"#$%&'()*+,-./:;<=>?@[\]^_`{|}~0123456789**************************
**PART1;
MC=AMD64;
MC_MODEL=Intel64 Family 6 Model 151 Stepping 2, GenuineIntel;
MC_ID=unknown;
OS=Windows_NT;
OS_RELEASE=unknown;
FRU=Parasolid Version 32.1, build 255,  1- 1-2021;
APPL=SOLIDWORKS 2021-2021085;
SITE=;
USER=unknown;
FORMAT=text;
GUISE=transmit;
KEY=kieth_tank_holder;
FILE=kieth_tank_holder.x_t;
DATE=Thu Jun 29 19:33:02 2023;
**PART2;
SCH=SCH_3201255_32001;
USFLD_SIZE=0;
**PART3;
**END_OF_HEADER*****************************************************************
T51 : TRANSMIT FILE created by modeller version 320125523 SCH_3201255_32001_1300
6229 0 12 34 CCCCCCI4 mesh1006 0 I8 polyline1008 0 CCCCCCCDI5 owner1040 0 CCCCCC
I13 boundary_mesh1006 0 I17 boundary_polyline1008 0 CCCA16 index_map_offset0 0 1
 dA9 index_map82 0 A17 node_id_index_map82 0 A20 schema_embedding_map82 0 A5 chi
ld12 0 A14 lowest_node_id0 0 1 dA16 mesh_offset_data206 0 Z1 1293 2 3 0 0 0 0 0
 0 1e3 1e-8 0 4 0 1 0 1 1 5 6 7 8 0 0 9 10 11 0 0 0 0 0 0 0 81 255 2 2 1262 12 1
 13 0 0 0 0 14 70 11 CI9 list_type0 0 1 uI10 notransmit0 0 1 lCCCDCCDI12 finger_
index0 0 1 dI12 finger_block1012 0 CZ3 0 4 T1 0 0 11 20 1 15 15 13 255 5 34 0 1
 0 16 0 0 17 0 51 255 6 63 0 18 19 0 0 +0 -15875e-8 0 0 -1 0 .03302 0 0 -1 31 25
5 7 67 0 10 20 0 0 +0 0 0 0 -1 0 0 0 -1 .03302 29 255 8 414 0 11 21 0 .004427511
731580515 .003175 -.0506066906630607 19 8 CCCCCCCA5 owner12 0 Z9 38 0 1 17 0 22
 V0 16 255 10 52 23 ?24 0 25 7 0 0 1 18 255 11 412 0 26 0 27 8 ?1 17 255 26 0 28
 29 30 11 31 32 0 33 +18 27 319 0 34 11 35 21 ?1 17 34 0 36 37 38 27 39 40 0 41
 +18 35 232 0 42 27 43 44 ?1 29 21 321 0 27 44 8 .0506066906630607 .003175 .0044
27511731581045 29 44 234 0 35 45 21 -.002877882625527575 .003175 .03289434893098
945 29 45 112 0 43 46 44 -.03289434893098945 .003175 -.00287788262552768 18 43 1
10 0 47 35 48 45 ?1 29 46 107 0 48 49 45 -.0506066906630607 .003175 -.0044275117
31581045 18 48 105 0 50 43 51 46 ?1 29 49 104 0 51 52 46 -.0506066906630607 .003
175 .004427511731581045 18 51 103 0 53 48 54 49 ?1 29 52 186 0 54 55 49 -.032894
34893098945 .003175 .00287788262552768 18 54 143 0 56 51 57 52 ?1 29 55 188 0 57
 58 52 -.0575651106292315 .03714470234283145 .00503629459467344 18 57 147 0 59 5
4 60 55 ?1 29 58 189 0 60 61 55 -.0559836515460109 .03714470234283145 .004897934
85306153 18 60 141 0 62 57 63 58 ?1 29 61 192 0 63 64 58 -.0575651106292315 .037
14470234283145 -.00503629459467344 18 63 144 0 65 60 66 61 ?1 29 64 193 0 66 67
 61 -.0559836515460109 .03714470234283145 -.00489793485306153 18 66 146 0 68 63
 69 64 ?1 29 67 307 0 69 70 64 .002877882625527795 .003175 .03289434893098945 18
 69 264 0 71 66 72 67 ?1 29 70 308 0 72 73 67 .00442751173158122 .003175 .050606
6906630607 18 72 266 0 74 69 75 70 ?1 29 73 309 0 75 76 70 .00503629459467364 .0
3714470234283145 .0575651106292315 18 75 265 0 77 72 78 73 ?1 29 76 310 0 78 79
 73 .00489793485306173 .03714470234283145 .0559836515460109 18 78 267 0 80 75 81
 76 ?1 29 79 311 0 81 82 76 -.00489793485306134 .03714470234283145 .055983651546
0109 18 81 263 0 83 78 84 79 ?1 29 82 312 0 84 85 79 -.00503629459467324 .037144
70234283145 .0575651106292315 18 84 269 0 86 81 87 82 ?1 29 85 313 0 87 88 82 -.
00442751173158087 .003175 .0506066906630607 18 87 268 0 89 84 90 85 ?1 29 88 400
 0 90 91 85 .03289434893098945 .003175 -.00287788262552768 18 90 357 0 92 87 93
 88 ?1 29 91 401 0 93 94 88 .0506066906630607 .003175 -.004427511731581045 18 93
 359 0 95 90 96 91 ?1 29 94 402 0 96 97 91 .0575651106292315 .03714470234283145
 -.00503629459467344 18 96 358 0 98 93 99 94 ?1 29 97 403 0 99 100 94 .055983651
5460109 .03714470234283145 -.00489793485306153 18 99 360 0 101 96 102 97 ?1 29 1
00 404 0 102 103 97 .0559836515460109 .03714470234283145 .00489793485306153 18 1
02 356 0 104 99 105 100 ?1 29 103 405 0 105 106 100 .0575651106292315 .037144702
34283145 .00503629459467344 18 105 362 0 39 102 107 103 ?1 29 106 407 0 107 108
 103 .03289434893098945 .003175 .00287788262552768 18 107 355 0 109 105 110 106
 ?1 29 108 493 0 110 111 106 -.002877882625528025 .003175 -.0328943489309894 18
 110 450 0 112 107 113 108 ?1 29 111 494 0 113 114 108 -.004427511731581575 .003
175 -.0506066906630606 18 113 452 0 115 110 116 111 ?1 29 114 495 0 116 117 111
 -.00503629459467404 .03714470234283145 -.0575651106292315 18 116 451 0 118 113
 119 114 ?1 29 117 496 0 119 120 114 -.00489793485306212 .03714470234283145 -.05
59836515460108 18 119 453 0 121 116 122 117 ?1 29 120 497 0 122 123 117 .0048979
3485306094 .03714470234283145 -.0559836515460109 18 122 449 0 124 119 125 120 ?1
 29 123 498 0 125 126 120 .00503629459467284 .03714470234283145 -.05756511062923
16 18 125 455 0 31 122 127 123 ?1 29 126 500 0 127 0 123 .002877882625527335 .00
3175 -.03289434893098945 18 127 448 0 128 125 0 126 ?1 17 128 0 129 33 130 127 1
24 131 0 132 -15 255 129 472 0 128 133 0 17 33 0 129 31 128 11 134 135 0 136 -17
 130 0 129 128 31 122 137 138 0 139 -17 124 0 140 141 132 122 128 131 0 130 +16
 131 438 142 ?124 32 135 143 0 0 1 17 132 0 140 124 112 127 144 145 0 134 +15 14
0 460 0 132 146 0 17 112 0 140 132 141 110 147 148 0 149 -17 144 0 150 151 152 1
10 132 145 0 153 -16 145 436 154 ?132 155 156 157 0 0 1 17 134 0 158 92 136 127
 33 135 0 152 +15 158 334 0 136 159 0 17 92 0 158 160 134 90 152 161 0 162 +17 1
36 0 158 134 160 11 95 163 0 164 -16 135 434 165 ?134 131 166 167 0 0 1 17 152 0
 150 144 168 127 92 161 0 0 -15 150 87 0 169 18 170 17 168 0 150 152 171 90 172
 173 0 0 -16 161 419 174 ?92 175 176 177 176 178 1 81 2 174 1121 179 161 0 0 180
 181 0 0 16 175 111 182 ?153 178 161 177 178 183 1 16 176 326 184 ?71 161 183 17
7 183 161 1 31 177 64 0 178 185 186 0 +0 .003175 0 0 -1 0 0 0 -1 .03302 16 178 4
0 187 ?188 189 175 177 161 175 1 81 2 187 1163 179 178 0 0 190 191 0 0 17 188 0
 192 193 194 43 169 178 0 195 +16 189 227 196 ?53 197 178 186 198 197 1 81 2 196
 1102 179 189 0 0 0 23 0 0 17 53 0 199 200 201 51 202 189 0 203 +16 197 320 204
 ?74 163 189 186 189 163 1 31 186 65 0 205 177 20 0 +0 .003175 0 0 -1 0 0 0 -1 .
0508 16 198 106 181 ?206 205 163 186 205 189 1 81 2 181 1122 179 198 0 0 174 207
 0 0 17 206 0 199 164 200 113 50 198 0 0 +16 205 42 208 ?200 25 198 186 163 198
 1 16 163 413 209 ?95 198 197 186 197 205 1 81 2 209 1110 179 163 0 0 210 211 0
 0 17 95 0 199 212 164 93 136 163 0 213 +15 199 49 0 200 214 0 17 212 0 199 74 9
5 27 37 215 0 0 +17 164 0 199 95 206 11 29 156 0 0 +17 213 0 216 217 98 93 218 2
19 0 37 +15 216 373 0 220 221 0 17 217 0 216 220 213 90 160 222 0 168 +17 98 0 2
16 213 220 96 101 223 0 224 +17 218 0 36 38 37 96 213 219 0 0 -16 219 350 225 ?2
13 222 226 227 0 0 1 17 37 0 36 218 34 93 212 215 0 160 -15 36 370 0 38 228 0 16
 215 339 229 ?212 173 222 230 0 0 1 17 160 0 158 136 92 93 217 222 0 0 -16 222 3
51 231 ?217 215 219 232 0 0 1 81 2 231 1145 179 222 0 0 233 234 0 0 30 255 232 3
90 0 222 227 230 0 +.03289434893098945 .003175 -.00287788262552768 -.99619469809
1746 0 .0871557427476584 31 227 391 0 219 235 232 0 +-.0282011132836591 .0371447
0234283145 .00246727771113052 -.0871557427476584 0 -.996194698091746 .9961946980
91746 0 -.0871557427476584 .0860938369549442 31 230 389 0 215 232 236 0 +0 .0031
75 0 0 -1 0 0 0 1 .0508 31 236 388 0 173 230 237 0 +0 .003175 0 0 -1 0 0 0 1 .03
302 16 173 343 238 ?172 239 215 236 0 0 1 30 237 306 0 239 236 240 0 +-.00287788
2625527565 .003175 .03289434893098945 .0871557427476549 0 -.996194698091746 16 2
39 248 241 ?242 243 173 237 0 0 1 31 240 305 0 243 237 244 0 +0 .050596364647171
4 0 -.996194698091746 0 -.0871557427476549 -.0871557427476549 0 .996194698091746
 .057785 16 243 252 245 ?83 246 239 240 0 0 1 31 244 304 0 246 240 247 0 +.00246
7277711130425 .03714470234283145 -.0282011132836591 .996194698091746 0 .08715574
27476549 -.0871557427476549 0 .996194698091746 .0860938369549442 16 246 254 248
 ?249 250 243 244 0 0 1 30 247 303 0 250 244 251 0 +-.00489793485306134 .0371447
0234283145 .0559836515460109 -.0871557427476549 0 .996194698091746 16 250 261 25
2 ?253 254 246 247 0 0 1 30 251 302 0 254 247 255 0 +.00489793485306173 .0371447
0234283145 .0559836515460109 .0871557427476618 0 .996194698091745 16 254 256 256
 ?77 257 250 251 0 0 1 31 255 301 0 257 251 258 0 +0 .03714470234283145 0 0 -1 0
 -1 0 3491481338843135e-30 .0561975 16 257 260 259 ?260 261 254 255 0 0 1 31 258
 300 0 261 255 262 0 +0 .03714470234283145 0 0 -1 0 -1 0 3491481338843135e-30 .0
57785 16 261 253 263 ?264 265 257 258 0 0 1 31 262 299 0 265 258 266 0 +0 .05059
63646471714 0 -.996194698091745 0 .0871557427476618 .0871557427476618 0 .9961946
98091745 .057785 16 265 255 207 ?267 268 261 262 0 0 1 31 266 298 0 268 262 269
 0 +-.00246727771113062 .03714470234283145 -.0282011132836591 .996194698091745 0
 -.0871557427476618 .0871557427476618 0 .996194698091745 .0860938369549442 16 26
8 257 270 ?271 272 265 266 0 0 1 30 269 297 0 272 266 273 0 +.002877882625527795
 .003175 .03289434893098945 -.0871557427476618 0 -.996194698091745 16 272 258 27
4 ?275 276 268 269 0 0 1 31 273 296 0 276 269 277 0 +0 .003175 0 0 -1 0 -1 0 349
1481338843135e-30 .0508 16 276 246 278 ?201 279 272 273 0 0 1 31 277 295 0 279 2
73 280 0 +0 .003175 0 0 -1 0 -1 0 3491481338843135e-30 .03302 16 279 250 281 ?42
 282 276 277 0 0 1 31 280 185 0 282 277 283 0 +0 .0505963646471714 0 .0871557427
476584 0 -.996194698091746 -.996194698091746 0 -.0871557427476584 .057785 16 282
 121 284 ?193 285 279 280 0 0 1 30 283 184 0 285 280 286 0 +-.0559836515460109 .
03714470234283145 -.00489793485306153 -.996194698091746 0 -.0871557427476584 16
 285 130 287 ?288 289 282 283 0 0 1 31 286 183 0 289 283 290 0 +.028201113283659
1 .03714470234283145 .00246727771113052 -.0871557427476584 0 .996194698091746 -.
996194698091746 0 -.0871557427476584 .0860938369549442 16 289 127 291 ?292 293 2
85 286 0 0 1 30 290 182 0 293 286 294 0 +-.03289434893098945 .003175 -.002877882
62552768 .996194698091746 0 .0871557427476584 16 293 124 295 ?47 296 289 290 0 0
 1 31 294 181 0 296 290 297 0 +0 .0505963646471714 0 -.0871557427476584 0 -.9961
94698091746 -.996194698091746 0 .0871557427476584 .057785 16 296 132 298 ?299 30
0 293 294 0 0 1 30 297 180 0 300 294 301 0 +-.0559836515460109 .0371447023428314
5 .00489793485306153 -.996194698091746 0 .0871557427476584 16 300 134 302 ?303 3
04 296 297 0 0 1 31 301 179 0 304 297 305 0 +.0282011132836591 .0371447023428314
5 -.00246727771113052 .0871557427476584 0 .996194698091746 -.996194698091746 0 .
0871557427476584 .0860938369549442 16 304 136 306 ?307 308 300 301 0 0 1 30 305
 178 0 308 301 309 0 +-.03289434893098945 .003175 .00287788262552768 .9961946980
91746 0 -.0871557427476584 16 308 138 310 ?311 312 304 305 0 0 1 31 309 177 0 31
2 305 185 0 +0 .03714470234283145 0 0 -1 0 0 0 -1 .0561975 16 312 129 210 ?68 31
3 308 309 0 0 1 31 185 176 0 313 309 177 0 +0 .03714470234283145 0 0 -1 0 0 0 -1
 .057785 16 313 126 314 ?65 183 312 185 0 0 1 81 2 314 1157 179 313 0 0 281 241
 0 0 17 65 0 315 292 316 63 59 313 0 288 +16 183 233 317 ?56 176 313 177 175 176
 1 81 2 317 1130 179 183 0 0 248 274 0 0 17 56 0 318 203 242 54 319 183 0 169 +1
5 318 86 0 202 320 0 17 203 0 318 202 56 51 311 308 0 321 -17 242 0 318 56 202 3
5 89 239 0 319 +17 319 0 150 322 169 35 56 183 0 0 -17 169 0 150 319 151 54 188
 178 0 311 -17 151 0 150 169 144 43 153 175 0 188 -17 311 0 323 299 307 54 203 3
08 0 194 +15 323 162 0 299 324 0 17 299 0 323 303 311 60 194 296 0 0 +17 307 0 3
23 311 303 51 316 304 0 0 +17 194 0 192 188 62 54 299 296 0 0 -15 192 150 0 188
 325 0 17 62 0 192 194 193 60 68 312 0 326 -17 193 0 192 62 188 66 195 282 0 0 +
17 68 0 327 288 326 66 62 312 0 328 +17 326 0 327 68 59 60 303 300 0 299 -15 327
 159 0 326 329 0 17 59 0 327 326 288 57 65 313 0 303 -17 303 0 323 307 299 57 32
6 300 0 316 +17 316 0 315 65 321 57 307 304 0 0 -15 315 156 0 65 330 0 17 321 0
 315 316 292 51 200 205 0 307 -17 292 0 315 321 65 48 331 289 0 332 +17 200 0 19
9 206 53 48 321 205 0 292 +17 331 0 333 328 332 63 292 289 0 0 -17 332 0 333 331
 195 48 47 293 0 0 -15 333 165 0 195 334 0 17 195 0 333 332 328 43 193 282 0 0 -
17 47 0 335 153 50 43 332 293 0 151 +15 335 427 0 336 16 0 17 153 0 335 336 47 1
10 151 175 0 0 +17 50 0 335 47 336 48 206 198 0 200 -17 336 0 335 50 153 113 149
 337 0 206 -17 149 0 338 147 115 110 336 337 0 144 +16 337 444 339 ?149 156 340
 341 0 0 1 81 2 339 1126 179 337 0 0 342 343 0 0 16 156 432 344 ?164 145 337 345
 0 0 1 16 340 443 346 ?115 337 148 347 0 0 1 30 341 483 0 337 347 345 0 +-.00287
7882625528025 .003175 -.0328943489309894 .0871557427476688 0 .996194698091745 31
 347 484 0 340 348 341 0 +.002467277711130815 .03714470234283145 .02820111328365
905 -.996194698091745 0 .0871557427476688 -.0871557427476688 0 -.996194698091745
 .0860938369549442 31 345 482 0 156 341 157 0 +0 .003175 0 0 -1 0 1 0 -104744440
165294e-28 .0508 31 157 481 0 145 345 349 0 +0 .003175 0 0 -1 0 1 0 -10474444016
5294e-28 .03302 30 349 399 0 155 157 350 0 +.03289434893098945 .003175 .00287788
262552768 -.996194698091746 0 -.0871557427476584 16 155 341 351 ?352 353 145 349
 0 0 1 31 350 398 0 353 349 354 0 +0 .0505963646471714 0 -.0871557427476584 0 .9
96194698091746 .996194698091746 0 .0871557427476584 .057785 16 353 345 355 ?104
 40 155 350 0 0 1 31 354 397 0 40 350 356 0 +-.0282011132836591 .037144702342831
45 -.00246727771113052 .0871557427476584 0 -.996194698091746 .996194698091746 0
 .0871557427476584 .0860938369549442 16 40 347 357 ?34 358 353 354 0 0 1 30 356
 396 0 358 354 359 0 +.0559836515460109 .03714470234283145 .00489793485306153 .9
96194698091746 0 .0871557427476584 16 358 354 360 ?361 223 40 356 0 0 1 30 359 3
95 0 223 356 362 0 +.0559836515460109 .03714470234283145 -.00489793485306153 .99
6194698091746 0 -.0871557427476584 16 223 349 363 ?98 364 358 359 0 0 1 31 362 3
94 0 364 359 365 0 +0 .03714470234283145 0 0 -1 0 0 0 1 .0561975 16 364 353 366
 ?367 368 223 362 0 0 1 31 365 393 0 368 362 235 0 +0 .03714470234283145 0 0 -1
 0 0 0 1 .057785 16 368 346 369 ?38 226 364 365 0 0 1 31 235 392 0 226 365 227 0
 +0 .0505963646471714 0 .0871557427476584 0 .996194698091746 .996194698091746 0
 -.0871557427476584 .057785 16 226 348 370 ?220 219 368 235 0 0 1 81 2 370 1119
 179 226 0 0 208 180 0 0 17 220 0 216 98 217 99 162 226 0 0 +17 162 0 371 172 37
2 90 220 226 0 217 -15 371 367 0 172 373 0 17 172 0 371 104 162 107 168 173 0 35
2 +17 372 0 371 162 104 99 367 364 0 220 -17 104 0 371 372 172 102 109 353 0 374
 +17 367 0 375 361 101 102 372 364 0 0 +15 375 376 0 101 376 0 17 361 0 375 224
 367 105 374 358 0 38 +17 101 0 375 367 224 99 98 223 0 372 -17 224 0 375 101 36
1 96 38 368 0 218 -17 38 0 36 34 218 105 224 368 0 0 +17 374 0 377 109 39 102 36
1 358 0 367 -15 377 379 0 109 378 0 17 109 0 377 41 374 107 104 353 0 172 -17 39
 0 377 374 41 105 34 40 0 361 -17 41 0 377 39 109 27 352 155 0 379 -17 352 0 380
 71 379 107 41 155 0 171 +17 379 0 380 352 381 27 74 197 0 212 -15 380 241 0 379
 382 0 17 381 0 380 379 71 72 275 272 0 0 -17 74 0 199 201 212 72 379 197 0 271
 +17 201 0 199 53 74 87 383 276 0 0 +17 271 0 384 275 77 72 385 268 0 383 +15 38
4 280 0 267 386 0 17 275 0 384 267 271 69 381 272 0 322 +17 77 0 384 271 267 75
 80 254 0 387 +17 385 0 388 264 383 75 271 268 0 0 -17 383 0 388 385 249 72 201
 276 0 381 -15 388 277 0 264 389 0 17 249 0 388 383 264 87 86 246 0 202 +17 264
 0 388 249 385 84 387 261 0 0 +17 86 0 390 391 89 84 249 246 0 253 -17 202 0 318
 242 203 87 53 189 0 201 -15 390 286 0 392 393 0 17 391 0 390 392 86 81 253 250
 0 260 -17 89 0 390 86 392 87 242 239 0 249 -17 253 0 394 387 260 84 391 250 0 2
64 +15 394 283 0 80 395 0 17 387 0 394 80 253 75 264 261 0 385 -17 260 0 394 253
 80 81 396 257 0 0 +17 80 0 394 260 387 78 77 254 0 396 -17 396 0 397 398 83 78
 260 257 0 267 -15 397 274 0 42 399 0 17 398 0 397 42 396 69 267 265 0 275 -17 8
3 0 397 396 42 81 392 243 0 391 +17 267 0 384 77 275 78 398 265 0 0 +17 42 0 397
 83 398 35 322 279 0 392 +17 392 0 390 89 391 35 83 243 0 242 -17 322 0 150 171
 319 69 42 279 0 0 -17 171 0 150 168 322 107 71 176 0 0 -17 71 0 380 381 352 69
 171 176 0 398 +14 255 399 272 400 ?389 334 397 5 401 -0 0 389 334 22 81 1 400 1
263 402 399 403 0 0 404 405 14 389 275 404 ?386 399 388 5 406 -0 0 386 399 22 14
 334 163 407 ?399 324 333 5 408 +0 0 399 324 22 53 255 401 290 0 399 406 408 0 +
0 .0505963646471714 0 .057785 0 -1 0 .0871557427476618 0 .996194698091745 13 22
 37 0 0 0 0 0 0 9 16 14 16 429 409 ?159 0 410 5 411 -159 320 159 0 22 81 1 409 1
266 402 16 412 0 407 413 414 14 159 336 413 ?382 16 415 5 411 -382 16 382 16 22
 15 410 658 0 416 16 335 50 255 411 60 0 320 417 418 0 +-.0508 .003175 0 0 -1 0
 0 0 -1 14 320 45 419 ?325 214 420 5 411 -16 382 325 214 22 81 1 419 1268 402 32
0 421 0 413 422 423 14 325 148 422 ?330 320 192 5 424 -0 0 330 320 22 14 214 50
 425 ?320 426 427 5 418 -0 0 320 426 22 15 420 579 0 428 320 318 14 382 243 429
 ?18 159 430 5 411 -320 159 18 159 22 81 1 429 1271 402 382 431 0 425 432 433 14
 18 58 432 ?426 382 150 5 6 -0 0 426 382 22 15 430 646 0 434 382 380 17 434 0 43
0 434 434 0 435 436 0 0 -17 435 0 437 435 435 0 434 436 0 0 +16 436 664 438 ?435
 439 440 441 0 0 1 81 2 438 1104 179 436 0 0 23 369 0 0 16 439 595 442 ?443 166
 436 444 0 0 1 16 440 666 180 ?445 436 446 447 0 0 1 31 441 721 0 436 447 448 0
 +.03030836440860855 .003175 .03030836440860825 0 1 0 1 0 -3491481338843135e-30
 .0033782 31 447 722 0 440 0 441 0 +.03030836440860855 -1734723475976805e-33 .03
030836440860825 0 1 0 1 0 -3491481338843135e-30 .0033782 31 448 720 0 449 441 45
0 0 +.03030836440860835 -1734723475976805e-33 -.03030836440860845 0 1 0 0 0 -1 .
0033782 16 449 679 342 ?451 446 452 448 0 0 1 31 450 719 0 446 448 453 0 +.03030
836440860835 .003175 -.03030836440860845 0 1 0 0 0 -1 .0033782 16 446 677 191 ?4
54 440 449 450 0 0 1 31 453 718 0 455 450 456 0 +-.0303083644086088 -17347234759
76805e-33 -.030308364408608 0 1 0 -1 0 104744440165294e-28 .0033782 16 455 692 2
33 ?457 452 0 453 0 0 1 31 456 717 0 452 453 444 0 +-.0303083644086088 .003175 -
.030308364408608 0 1 0 -1 0 104744440165294e-28 .0033782 16 452 690 234 ?458 449
 455 456 0 0 1 31 444 616 0 439 456 459 0 +-.03030836440860835 .003175 .03030836
440860845 0 1 0 0 0 1 .0033782 31 459 615 0 166 444 167 0 +-.03030836440860835 -
1734723475976805e-33 .03030836440860845 0 1 0 0 0 1 .0033782 16 166 596 460 ?461
 135 439 459 0 0 1 30 167 492 0 135 459 143 0 +.002877882625527335 .003175 -.032
89434893098945 -.0871557427476479 0 .996194698091746 31 143 491 0 131 167 462 0
 +0 .0505963646471714 0 .996194698091746 0 .0871557427476479 .0871557427476479 0
 -.996194698091746 .057785 31 462 490 0 32 143 463 0 +-.002467277711130225 .0371
4470234283145 .0282011132836591 -.996194698091746 0 -.0871557427476479 .08715574
27476479 0 -.996194698091746 .0860938369549442 16 32 440 343 ?26 138 131 462 0 0
 1 30 463 489 0 138 462 464 0 +.00489793485306094 .03714470234283145 -.055983651
5460109 .0871557427476479 0 -.996194698091746 16 138 447 211 ?137 465 32 463 0 0
 1 30 464 488 0 465 463 466 0 +-.00489793485306212 .03714470234283145 -.05598365
15460108 -.0871557427476688 0 -.996194698091745 16 465 442 467 ?118 468 138 464
 0 0 1 31 466 487 0 468 464 469 0 +0 .03714470234283145 0 0 -1 0 1 0 -1047444401
65294e-28 .0561975 16 468 446 470 ?139 471 465 466 0 0 1 31 469 486 0 471 466 34
8 0 +0 .03714470234283145 0 0 -1 0 1 0 -104744440165294e-28 .057785 16 471 439 4
72 ?30 148 468 469 0 0 1 31 348 485 0 148 469 347 0 +0 .0505963646471714 0 .9961
94698091745 0 -.0871557427476688 -.0871557427476688 0 -.996194698091745 .057785
 16 148 441 190 ?147 340 471 348 0 0 1 81 2 190 1162 179 148 0 0 351 187 0 0 17
 147 0 338 118 149 119 112 148 0 0 +15 338 466 0 147 473 0 17 118 0 338 115 147
 116 121 465 0 474 +17 115 0 338 149 118 113 475 340 0 29 +17 121 0 476 139 474
 119 118 465 0 141 -17 474 0 476 121 137 116 30 471 0 475 -15 476 469 0 121 477
 0 17 137 0 476 474 139 125 130 138 0 30 +17 30 0 28 26 475 125 474 471 0 0 +17
 475 0 28 30 29 116 115 340 0 0 -15 28 463 0 30 478 0 17 29 0 28 475 26 113 164
 156 0 336 -14 478 461 479 ?473 146 28 5 480 -0 0 473 146 22 81 1 479 1273 402 4
78 481 0 432 482 483 14 473 464 482 ?477 478 338 5 484 -0 0 477 478 22 14 146 45
8 485 ?478 378 140 5 486 -0 0 478 378 22 54 255 480 477 0 478 484 486 0 -0 .0371
4470234283145 0 0 -1 0 -.0283088369549442 .0860938369549442 1 0 -104744440165294
e-28 50 484 478 0 473 487 480 0 +0 .0505963646471714 0 .996194698091745 0 -.0871
557427476688 -.0871557427476688 0 -.996194698091745 53 486 476 0 146 480 488 0 +
0 .0505963646471714 0 .057785 0 -1 0 -.0871557427476688 0 -.996194698091745 50 4
88 387 0 378 486 489 0 +0 .0505963646471714 0 -.0871557427476584 0 .996194698091
746 .996194698091746 0 .0871557427476584 14 378 377 490 ?146 376 377 5 488 +0 0
 146 376 22 50 489 386 0 376 488 491 0 +.0559836515460109 .03714470234283145 -.0
0489793485306153 0 -1 0 0 0 1 14 376 374 492 ?378 221 375 5 489 -0 0 378 221 22
 50 491 385 0 221 489 493 0 +0 .0505963646471714 0 .0871557427476584 0 .99619469
8091746 .996194698091746 0 -.0871557427476584 14 221 371 494 ?376 228 216 5 491
 -0 0 376 228 22 54 493 384 0 228 491 495 0 -0 .03714470234283145 0 0 -1 0 -.028
3088369549442 .0860938369549442 0 0 1 14 228 368 496 ?221 373 36 5 493 -0 0 221
 373 22 53 495 383 0 373 493 497 0 +0 .0505963646471714 0 .057785 0 -1 0 .996194
698091746 0 -.0871557427476584 14 373 365 498 ?228 393 371 5 495 -0 0 228 393 22
 50 497 294 0 393 495 499 0 +0 .0505963646471714 0 -.996194698091746 0 -.0871557
427476549 -.0871557427476549 0 .996194698091746 14 393 284 500 ?373 395 390 5 49
7 +0 0 373 395 22 50 499 293 0 395 497 501 0 +.00489793485306173 .03714470234283
145 .0559836515460109 0 -1 0 -1 0 3491481338843135e-30 14 395 281 502 ?393 386 3
94 5 499 -0 0 393 386 22 50 501 292 0 386 499 406 0 +0 .0505963646471714 0 -.996
194698091745 0 .0871557427476618 .0871557427476618 0 .996194698091745 14 386 278
 503 ?395 389 384 5 501 -0 0 395 389 22 54 406 291 0 389 501 401 0 -0 .037144702
34283145 0 0 -1 0 -.0283088369549442 .0860938369549442 -1 0 3491481338843135e-30
 81 1 503 1283 402 386 504 0 502 505 506 80 255 1 402 507 508 9000 1 1 1 1 1 1 1
 1 0 FFFFTFTFFFFFFF1 81 1 504 1182 509 386 510 503 511 512 513 81 1 502 1282 402
 395 512 0 500 503 514 81 1 505 1284 402 477 515 0 503 516 517 82 255 1 506 -257
294214 14 477 467 505 ?133 473 476 5 487 -0 0 133 473 22 81 1 515 1193 509 477 5
18 505 519 520 521 81 1 516 1285 402 133 520 0 505 522 523 82 1 517 -241827718 1
4 133 470 516 ?524 477 129 5 525 +0 0 524 477 22 81 1 520 1194 509 133 526 516 5
15 527 528 81 1 522 1286 402 524 527 0 516 529 530 82 1 523 -241696646 14 524 60
5 522 ?531 133 532 5 533 -0 0 531 133 22 81 1 527 1195 509 524 534 522 520 535 5
36 81 1 529 1287 402 531 535 0 522 537 538 82 1 530 1125449852 14 531 698 529 ?5
39 524 540 5 541 -0 0 539 524 22 81 1 535 1196 509 531 542 529 527 543 544 81 1
 537 1288 402 539 543 0 529 545 546 82 1 538 1614086270 14 539 685 537 ?547 531
 548 5 549 -0 0 547 531 22 81 1 543 1197 509 539 550 537 535 551 552 81 1 545 12
89 402 547 551 0 537 553 554 82 1 546 1611923582 14 547 672 545 ?0 539 555 5 556
 -0 0 0 539 22 81 1 551 1198 509 547 557 545 543 0 558 81 1 553 1290 402 324 559
 0 545 560 561 82 1 554 1609760894 14 324 160 553 ?334 329 323 5 562 -0 0 334 32
9 22 81 1 559 1178 509 324 563 553 564 565 566 81 1 560 1291 402 329 564 0 553 5
67 568 82 1 561 -1263468427 14 329 157 560 ?324 330 327 5 569 -0 0 324 330 22 81
 1 564 1177 509 329 570 560 571 559 572 81 1 567 1292 402 330 571 0 560 573 574
 82 1 568 -1261240203 14 330 154 567 ?329 325 315 5 417 -0 0 329 325 22 81 1 571
 1176 509 330 575 567 576 564 577 81 1 573 1293 402 426 578 0 567 0 579 82 1 574
 -1258028939 14 426 55 573 ?214 18 580 5 19 -0 0 214 18 22 81 1 578 1172 509 426
 581 573 582 583 584 82 1 579 -2135097218 80 1 509 0 585 8001 0 0 0 0 3 5 0 0 0
 FFFFTFTFFFFFFF2 81 2 581 952 586 426 0 578 587 588 0 0 81 1 582 1171 509 18 587
 432 431 578 589 81 1 583 1173 509 214 588 425 578 421 590 83 255 3 584 .7921568
62745098 .819607843137255 .933333333333333 81 2 588 954 586 214 0 583 581 591 0
 0 81 1 425 1270 402 214 583 0 422 429 592 81 1 421 1174 509 320 591 419 583 576
 593 83 3 590 .792156862745098 .819607843137255 .933333333333333 81 2 591 956 58
6 320 0 421 588 594 0 0 81 1 576 1175 509 325 594 422 421 571 595 83 3 593 .7921
56862745098 .819607843137255 .933333333333333 81 2 594 958 586 325 0 576 591 575
 0 0 81 1 422 1269 402 325 576 0 419 425 596 83 3 595 .792156862745098 .81960784
3137255 .933333333333333 82 1 596 -1257373579 80 2 586 597 598 9000 0 0 0 0 3 6
 0 0 0 FFFFTFFFFFFFFF9 1 81 2 575 960 586 330 0 571 594 570 0 0 81 2 570 962 586
 329 0 564 575 563 0 0 81 2 563 964 586 324 0 559 570 599 0 0 81 2 599 966 586 3
34 0 565 563 600 0 0 81 1 565 1179 509 334 599 407 559 403 601 81 2 600 968 586
 399 0 403 599 602 0 0 81 1 403 1180 509 399 600 400 565 511 603 81 2 602 970 58
6 389 0 511 600 510 0 0 81 1 511 1181 509 389 602 404 403 504 604 81 2 510 972 5
86 386 0 504 602 605 0 0 81 2 605 974 586 395 0 512 510 606 0 0 81 1 512 1183 50
9 395 605 502 504 607 608 81 2 606 976 586 393 0 607 605 609 0 0 81 1 607 1184 5
09 393 606 500 512 610 611 81 2 609 978 586 373 0 610 606 612 0 0 81 1 610 1185
 509 373 609 498 607 613 614 81 2 612 980 586 228 0 613 609 615 0 0 81 1 613 118
6 509 228 612 496 610 616 617 81 2 615 982 586 221 0 616 612 618 0 0 81 1 616 11
87 509 221 615 494 613 619 620 81 2 618 984 586 376 0 619 615 621 0 0 81 1 619 1
188 509 376 618 492 616 622 623 81 2 621 986 586 378 0 622 618 624 0 0 81 1 622
 1189 509 378 621 490 619 625 626 81 2 624 988 586 146 0 625 621 627 0 0 81 1 62
5 1190 509 146 624 485 622 481 628 81 2 627 990 586 478 0 481 624 629 0 0 81 1 4
81 1191 509 478 627 479 625 519 630 81 2 629 992 586 473 0 519 627 518 0 0 81 1
 519 1192 509 473 629 482 481 515 631 81 2 518 994 586 477 0 515 629 526 0 0 81
 2 526 996 586 133 0 520 518 534 0 0 81 2 534 998 586 524 0 527 526 542 0 0 81 2
 542 1000 586 531 0 535 534 550 0 0 81 2 550 1002 586 539 0 543 542 557 0 0 81 2
 557 1004 586 547 0 551 550 0 0 0 81 1 482 1274 402 473 519 0 479 485 632 83 3 6
31 .792156862745098 .819607843137255 .933333333333333 81 1 485 1275 402 146 625
 0 482 490 633 82 1 632 -241958790 81 1 490 1276 402 378 622 0 485 492 634 82 1
 633 -242483078 81 1 492 1277 402 376 619 0 490 494 635 82 1 634 -249364358 81 1
 494 1278 402 221 616 0 492 496 636 82 1 635 -249495430 81 1 496 1279 402 228 61
3 0 494 498 637 82 1 636 -249626502 81 1 498 1280 402 373 610 0 496 500 638 82 1
 637 -250019718 81 1 500 1281 402 393 607 0 498 502 639 82 1 638 -250150790 82 1
 639 -257032070 83 3 630 .792156862745098 .819607843137255 .933333333333333 83 3
 628 .792156862745098 .819607843137255 .933333333333333 83 3 626 .79215686274509
8 .819607843137255 .933333333333333 83 3 623 .792156862745098 .819607843137255 .
933333333333333 83 3 620 .792156862745098 .819607843137255 .933333333333333 83 3
 617 .792156862745098 .819607843137255 .933333333333333 83 3 614 .79215686274509
8 .819607843137255 .933333333333333 83 3 611 .792156862745098 .819607843137255 .
933333333333333 83 3 608 .792156862745098 .819607843137255 .933333333333333 81 1
 404 1264 402 389 511 0 400 407 640 83 3 604 .792156862745098 .819607843137255 .
933333333333333 81 1 407 1265 402 334 565 0 404 409 641 82 1 640 -257687430 82 1
 641 -1258749835 83 3 603 .792156862745098 .819607843137255 .933333333333333 83
 3 601 .792156862745098 .819607843137255 .933333333333333 79 255 14 598 FACE_ID_
2_200182 1 592 -2135687046 81 2 587 950 586 18 0 582 642 581 0 0 81 1 432 1272 4
02 18 582 0 429 479 643 81 1 431 1170 509 382 642 429 644 582 645 83 3 589 .7921
56862745098 .819607843137255 .933333333333333 81 2 642 948 586 382 0 431 646 587
 0 0 81 1 644 1169 509 159 646 413 412 431 647 83 3 645 .792156862745098 .819607
843137255 .933333333333333 81 2 646 946 586 159 0 644 648 642 0 0 81 1 413 1267
 402 159 644 0 409 419 649 81 1 412 1168 509 16 648 409 0 644 650 83 3 647 .7921
56862745098 .819607843137255 .933333333333333 81 2 648 944 586 16 0 412 0 646 0
 0 83 3 650 .792156862745098 .819607843137255 .933333333333333 82 1 649 -2328492
82 82 1 643 -2134769542 79 15 585 SDL/TYSA_COLOUR15 580 640 0 445 426 651 50 19
 62 0 426 418 6 0 +-.03302 -1088711004441996e-33 0 0 1 0 0 0 1 51 418 61 0 214 4
11 19 0 -0 -15875e-8 0 0 -1 0 .0508 0 0 -1 17 445 0 580 445 445 0 652 440 0 0 +1
5 651 634 0 451 426 653 17 451 0 651 451 451 0 654 449 0 0 +15 653 628 0 457 426
 655 17 457 0 653 457 457 0 656 455 0 0 +15 655 587 0 461 426 657 17 461 0 655 4
61 461 0 658 166 0 0 +15 657 84 0 659 426 660 17 659 0 657 659 659 0 24 10 0 0 -
15 660 54 0 661 426 0 17 661 0 660 661 661 0 662 25 0 0 +17 662 0 427 662 662 0
 661 25 0 0 -16 25 47 663 ?661 10 205 20 0 0 1 81 2 663 1138 179 25 0 0 284 225
 0 0 31 20 66 0 25 186 7 0 +0 -216840434497101e-32 0 0 -1 0 0 0 -1 .0508 80 2 17
9 664 665 9000 0 0 0 0 3 6 0 0 0 FFFFFFTFFFFFFF9 1 81 2 284 1137 179 282 0 0 252
 663 0 0 81 2 225 1139 179 219 0 0 663 259 0 0 81 2 259 1140 179 257 0 0 225 291
 0 0 81 2 291 1141 179 289 0 0 259 165 0 0 81 2 165 1142 179 135 0 0 291 278 0 0
 81 2 278 1143 179 276 0 0 165 233 0 0 81 2 233 1144 179 455 0 0 278 231 0 0 81
 2 252 1136 179 250 0 0 204 284 0 0 81 2 204 1135 179 197 0 0 442 252 0 0 81 2 4
42 1134 179 439 0 0 245 204 0 0 81 2 245 1133 179 243 0 0 355 442 0 0 81 2 355 1
132 179 353 0 0 274 245 0 0 81 2 274 1131 179 272 0 0 317 355 0 0 79 19 665 EDGE
_PERM_ID_2_200315 427 85 0 662 214 199 17 24 0 170 24 24 0 659 10 0 0 +15 170 57
 0 24 18 0 17 658 0 532 658 658 0 461 166 0 0 -15 532 608 0 658 524 666 15 666 6
09 0 443 524 0 17 443 0 666 443 443 0 428 439 0 0 +17 428 0 420 428 428 0 443 43
9 0 0 -17 656 0 540 656 656 0 457 455 0 0 -15 540 700 0 656 531 667 15 667 701 0
 458 531 0 17 458 0 667 458 458 0 416 452 0 0 +17 416 0 410 416 416 0 458 452 0
 0 -17 654 0 548 654 654 0 451 449 0 0 -15 548 687 0 654 539 668 15 668 688 0 45
4 539 0 17 454 0 668 454 454 0 669 446 0 0 +17 669 0 415 669 669 0 454 446 0 0 -
15 415 652 0 669 159 158 17 652 0 555 652 652 0 445 440 0 0 -15 555 674 0 652 54
7 437 15 437 675 0 435 547 0 83 3 577 .792156862745098 .819607843137255 .9333333
33333333 54 417 169 0 330 569 411 0 -0 .03714470234283145 0 0 -1 0 -.02830883695
49442 .0860938369549442 0 0 -1 50 569 170 0 329 424 417 0 +-.0559836515460109 .0
3714470234283145 .00489793485306153 0 -1 0 0 0 -1 53 424 171 0 325 562 569 0 +0
 .0505963646471714 0 .057785 0 -1 0 -.996194698091746 0 .0871557427476584 50 562
 172 0 324 408 424 0 +0 .0505963646471714 0 -.0871557427476584 0 -.9961946980917
46 -.996194698091746 0 .0871557427476584 50 408 173 0 334 401 562 0 +0 .05059636
46471714 0 .0871557427476584 0 -.996194698091746 -.996194698091746 0 -.087155742
7476584 83 3 572 .792156862745098 .819607843137255 .933333333333333 83 3 566 .79
2156862745098 .819607843137255 .933333333333333 83 3 558 .792156862745098 .81960
7843137255 .933333333333333 51 556 716 0 547 0 549 0 +.03030836440860855 .003175
 .03030836440860825 0 1 0 .0033782 1 0 -3491481338843135e-30 51 549 713 0 539 55
6 541 0 +.03030836440860835 .003175 -.03030836440860845 0 1 0 .0033782 0 0 -1 51
 541 710 0 531 549 533 0 +-.0303083644086088 .003175 -.030308364408608 0 1 0 .00
33782 -1 0 104744440165294e-28 51 533 614 0 524 541 525 0 +-.03030836440860835 .
003175 .03030836440860845 0 1 0 .0033782 0 0 1 50 525 480 0 133 533 487 0 +0 .05
05963646471714 0 .996194698091746 0 .0871557427476479 .0871557427476479 0 -.9961
94698091746 50 487 479 0 477 525 484 0 +-.00489793485306212 .03714470234283145 -
.0559836515460108 0 -1 0 1 0 -104744440165294e-28 83 3 552 .792156862745098 .819
607843137255 .933333333333333 83 3 544 .792156862745098 .819607843137255 .933333
333333333 83 3 536 .792156862745098 .819607843137255 .933333333333333 83 3 528 .
792156862745098 .819607843137255 .933333333333333 83 3 521 .792156862745098 .819
607843137255 .933333333333333 82 1 514 -257163142 83 3 513 .792156862745098 .819
607843137255 .933333333333333 79 14 508 SWEntUnchanged82 1 483 -242352006 17 139
 0 476 137 121 122 141 468 0 0 +17 141 0 140 112 124 119 139 468 0 147 -81 2 351
 1161 179 155 0 0 229 190 0 0 81 2 229 1160 179 215 0 0 142 351 0 0 81 2 142 115
9 179 131 0 0 241 229 0 0 81 2 241 1158 179 239 0 0 314 142 0 0 81 2 472 1152 17
9 471 0 0 460 357 0 0 81 2 460 1151 179 166 0 0 306 472 0 0 81 2 357 1153 179 40
 0 0 472 298 0 0 81 2 298 1154 179 296 0 0 357 154 0 0 81 2 154 1155 179 145 0 0
 298 281 0 0 81 2 281 1156 179 279 0 0 154 314 0 0 81 2 306 1150 179 304 0 0 256
 460 0 0 81 2 256 1149 179 254 0 0 360 306 0 0 81 2 360 1148 179 358 0 0 467 256
 0 0 81 2 467 1147 179 465 0 0 234 360 0 0 81 2 234 1146 179 452 0 0 231 467 0 0
 81 2 470 1128 179 468 0 0 343 248 0 0 81 2 343 1127 179 32 0 0 339 470 0 0 81 2
 248 1129 179 246 0 0 470 317 0 0 81 2 211 1111 179 138 0 0 209 270 0 0 81 2 270
 1112 179 268 0 0 211 287 0 0 81 2 287 1113 179 285 0 0 270 184 0 0 81 2 184 111
4 179 176 0 0 287 346 0 0 81 2 346 1115 179 340 0 0 184 363 0 0 81 2 363 1116 17
9 223 0 0 346 310 0 0 81 2 310 1117 179 308 0 0 363 208 0 0 81 2 208 1118 179 20
5 0 0 310 370 0 0 81 2 191 1164 179 446 0 0 187 238 0 0 81 2 238 1165 179 173 0
 0 191 182 0 0 81 2 182 1166 179 175 0 0 238 295 0 0 81 2 295 1167 179 293 0 0 1
82 0 0 0 81 2 342 1125 179 449 0 0 344 339 0 0 81 2 344 1124 179 156 0 0 207 342
 0 0 81 2 207 1123 179 265 0 0 181 344 0 0 81 2 180 1120 179 440 0 0 370 174 0 0
 81 2 23 1103 179 10 0 0 196 438 0 0 81 2 369 1105 179 368 0 0 438 366 0 0 81 2
 366 1106 179 364 0 0 369 263 0 0 81 2 263 1107 179 261 0 0 366 302 0 0 81 2 302
 1108 179 300 0 0 263 210 0 0 81 2 210 1109 179 312 0 0 302 209 0 0 82 1 433 -23
5274114 82 1 423 -2136276868 82 1 414 -230424450 82 1 405 -257818502 17 328 0 33
3 195 331 66 288 285 0 193 -17 288 0 327 59 68 63 328 285 0 331 +17 31 0 129 130
 33 125 26 32 0 137 -19 17 33 0 1 0 9 5 S0 74 4 CI16 index_map_offset0 0 1 dCCZ2
0 15 11 0 0 573 670 671 672 673 674 13 557 295 551 2 0 0 0 0 0 0 0 0 0 81 2 670
 195 675 1 0 671 0 0 0 676 81 2 671 203 677 1 670 672 0 0 0 678 81 1 672 744 679
 1 671 673 0 0 680 81 2 673 777 681 1 672 674 0 0 682 0 81 2 674 906 683 1 673 1
3 0 0 0 684 81 2 13 909 685 1 674 2 0 0 0 0 80 2 685 686 687 9000 0 0 0 0 3 5 0
 0 0 FFTFFFFFFFFFFF9 1 79 16 687 BODY_RECIPE_200180 2 683 688 689 9000 0 0 0 0 3
 5 0 0 0 FFTFFFFFFFFFFF9 1 82 1 684 1 79 24 689 BODY_IN_LIGHTWEIGHT_PERM80 2 681
 690 691 8004 0 0 0 0 3 5 0 0 0 FFTFFFFFFFFFFF2 3 83 1 682 1 79 16 691 SDL/TYSA_
DENSITY80 1 679 692 693 9000 1 1 1 1 1 1 1 1 0 FFTFFFFFFFFFFF1 82 1 680 98425 79
 10 693 BODY_MATCH80 2 677 694 695 9000 0 0 0 0 3 5 0 0 0 FFTFFFFFFFFFFF9 1 82 1
 678 118 79 30 695 LAST_BODY_MODIFYING_FEATURE_ID80 2 675 696 697 9000 0 0 0 0 3
 5 0 0 0 FFTFFFFFFFFFFF9 1 82 1 676 116 79 19 697 ENT_TIME_STAMP_200180 2 12 179
 698 9000 0 0 0 0 3 5 0 0 0 FFTFFFFFFFFFFF9 1 82 1 14 106 79 12 698 ATOM_ID_2001
1 0 
