**ABCDEFGHIJKLMNOPQRSTUVWXYZabcdefghijklmnopqrstuvwxyz**************************
**PARASOLID !"#$%&'()*+,-./:;<=>?@[\]^_`{|}~0123456789**************************
**PART1;
MC=AMD64;
MC_MODEL=Intel64 Family 6 Model 151 Stepping 2, GenuineIntel;
MC_ID=unknown;
OS=Windows_NT;
OS_RELEASE=unknown;
FRU=Parasolid Version 32.1, build 255,  1- 1-2021;
APPL=SOLIDWORKS 2021-2021085;
SITE=;
USER=unknown;
FORMAT=text;
GUISE=transmit;
KEY=makeProjectedPlanarWire;
FILE=makeProjectedPlanarWire.x_t;
DATE=Fri Apr 29 14:06:04 2022;
**PART2;
SCH=SCH_3201255_32001;
USFLD_SIZE=0;
**PART3;
**END_OF_HEADER*****************************************************************
T51 : TRANSMIT FILE created by modeller version 320125523 SCH_3201255_32001_1300
6229 0 12 34 CCCCCCI4 mesh1006 0 I8 polyline1008 0 CCCCCCCDI5 owner1040 0 CCCCCC
I13 boundary_mesh1006 0 I17 boundary_polyline1008 0 CCCA16 index_map_offset0 0 1
 dA9 index_map82 0 A17 node_id_index_map82 0 A20 schema_embedding_map82 0 A5 chi
ld12 0 A14 lowest_node_id0 0 1 dA16 mesh_offset_data206 0 Z1 596 0 0 0 0 0 0 0 0
 1e3 1e-8 0 2 0 1 0 3 1 3 4 5 6 0 0 7 8 9 0 0 0 0 0 0 0 13 255 3 118 0 1 0 10 0
 0 7 10 50 255 4 3 0 10 0 0 0 +0 -.0861506748207043 0 0 1 0 0 0 1 30 255 5 77 0
 8 11 0 0 +0 -.0861506748207043 -.003447699250879145 1 0 0 29 255 6 596 0 9 12 0
 -.0381 -.0861506748207043 0 19 8 CCCCCCCA5 owner12 0 Z7 117 0 1 0 0 3 V0 16 255
 8 75 0 ?13 0 14 5 0 0 1 18 255 9 558 0 15 0 16 6 ?1 17 255 15 0 17 18 19 9 20 2
1 0 22 -18 16 114 0 23 9 24 12 ?1 17 23 0 0 0 0 16 25 26 0 13 -18 24 111 0 27 16
 28 29 ?1 29 12 116 0 16 29 6 -.0428625 -.0861506748207043 -.003447699250879145
 29 29 113 0 24 30 12 -.0479425 -.0861506748207043 -.003447699250879145 29 30 10
7 0 28 31 29 -.0479425 -.0861506748207043 .003447699250879145 18 28 105 0 32 24
 33 30 ?1 29 31 104 0 33 34 30 -.0428625 -.0861506748207043 .003447699250879145
 18 33 102 0 25 28 35 31 ?1 29 34 98 0 35 36 31 -.0428625 -.0861506748207043 .00
47625 18 35 96 0 20 33 37 34 ?1 29 36 95 0 37 38 34 -.0479425 -.0861506748207043
 .0047625 18 37 93 0 39 35 40 36 ?1 29 38 89 0 40 41 36 -.0479425 -.086150674820
7043 -.0047625 18 40 87 0 42 37 43 38 ?1 29 41 86 0 43 0 38 -.0428625 -.08615067
48207043 -.0047625 18 43 84 0 18 40 0 41 ?1 17 18 0 17 42 15 43 22 44 0 45 -15 2
55 17 7 0 18 10 46 17 42 0 17 39 18 40 45 47 0 48 -17 22 0 0 0 0 9 18 44 0 0 +16
 44 9 0 ?22 47 21 49 21 21 1 17 45 0 0 0 0 43 42 47 0 0 +16 47 21 0 ?45 50 44 51
 0 0 1 16 50 27 0 ?48 52 47 53 0 0 1 30 51 23 0 47 49 53 0 +0 -.0861506748207043
 -.0047625 1 0 0 31 255 49 11 0 44 0 51 0 --.0428625 -.0861506748207043 45088319
5649253e-34 0 1 0 0 0 1 .0047625 31 53 29 0 50 51 54 0 --.0479425 -.086150674820
7043 0 0 1 0 0 0 1 .0047625 30 54 41 0 52 53 55 0 +-1626303258728265e-33 -.08615
06748207043 .0047625 -1 0 -3414809992080335e-31 16 52 39 0 ?56 26 50 54 0 0 1 31
 55 47 0 26 54 57 0 --.0428625 -.0861506748207043 450883195649253e-34 0 1 0 0 0
 1 .003447699250879145 16 26 45 0 ?25 58 52 55 0 0 1 30 57 59 0 58 55 11 0 +0 -.
0861506748207043 .003447699250879145 -1 0 0 16 58 57 0 ?32 14 26 57 0 0 1 31 11
 65 0 14 57 5 0 --.0479425 -.0861506748207043 0 0 1 0 0 0 1 .003447699250879145
 16 14 63 0 ?27 8 58 11 0 0 1 17 27 0 46 13 32 24 59 14 0 60 +15 46 8 0 25 10 0
 17 13 0 46 25 27 16 60 8 0 0 +17 32 0 46 27 25 28 61 58 0 59 +17 59 0 0 0 0 28
 27 14 0 0 -17 60 0 0 0 0 24 13 8 0 0 -17 25 0 46 32 13 33 23 26 0 61 +17 61 0 0
 0 0 33 32 58 0 0 -14 255 10 1 0 ?0 0 17 3 4 +0 0 0 0 3 17 56 0 0 0 0 37 19 52 0
 0 +17 19 0 17 15 39 35 56 52 0 0 -17 39 0 17 19 42 37 48 50 0 56 -17 48 0 0 0 0
 40 39 50 0 0 +16 21 559 0 ?20 44 0 49 44 44 1 17 20 0 0 0 0 35 15 21 0 19 +1 0
 
